<mxfile host="app.diagrams.net" agent="Mozilla/5.0 (Windows NT 10.0; Win64; x64) AppleWebKit/537.36 (KHTML, like Gecko) Chrome/140.0.0.0 Safari/537.36 Edg/140.0.0.0" version="28.2.0">
  <diagram id="2PrP-n84pShUk8Uf-lxW" name="ページ1">
    <mxGraphModel dx="697" dy="863" grid="1" gridSize="10" guides="1" tooltips="1" connect="1" arrows="1" fold="1" page="1" pageScale="1" pageWidth="827" pageHeight="1169" math="0" shadow="0">
      <root>
        <mxCell id="0" />
        <mxCell id="1" parent="0" />
        <mxCell id="5dLRTpEhYtrTytqZXQKP-15" value="" style="edgeStyle=none;curved=1;rounded=0;orthogonalLoop=1;jettySize=auto;html=1;fontSize=12;startSize=8;endSize=8;entryX=-0.018;entryY=0.478;entryDx=0;entryDy=0;entryPerimeter=0;" edge="1" parent="1" source="5dLRTpEhYtrTytqZXQKP-2" target="5dLRTpEhYtrTytqZXQKP-13">
          <mxGeometry relative="1" as="geometry" />
        </mxCell>
        <mxCell id="5dLRTpEhYtrTytqZXQKP-2" value="学生" style="shape=umlActor;verticalLabelPosition=bottom;verticalAlign=top;html=1;" vertex="1" parent="1">
          <mxGeometry x="130" y="210" width="30" height="60" as="geometry" />
        </mxCell>
        <mxCell id="5dLRTpEhYtrTytqZXQKP-4" value="メニュー&lt;div&gt;画面&lt;/div&gt;" style="shape=umlBoundary;whiteSpace=wrap;html=1;" vertex="1" parent="1">
          <mxGeometry x="250" y="140" width="100" height="80" as="geometry" />
        </mxCell>
        <mxCell id="5dLRTpEhYtrTytqZXQKP-5" value="" style="endArrow=classic;html=1;rounded=0;fontSize=12;startSize=8;endSize=8;curved=1;entryX=-0.023;entryY=0.458;entryDx=0;entryDy=0;entryPerimeter=0;exitX=1;exitY=0.3333333333333333;exitDx=0;exitDy=0;exitPerimeter=0;" edge="1" parent="1" source="5dLRTpEhYtrTytqZXQKP-2" target="5dLRTpEhYtrTytqZXQKP-4">
          <mxGeometry width="50" height="50" relative="1" as="geometry">
            <mxPoint x="190" y="290" as="sourcePoint" />
            <mxPoint x="240" y="240" as="targetPoint" />
          </mxGeometry>
        </mxCell>
        <mxCell id="5dLRTpEhYtrTytqZXQKP-6" value="①メニュー画面を&lt;div&gt;クリックする&lt;/div&gt;" style="text;html=1;align=center;verticalAlign=middle;resizable=0;points=[];autosize=1;strokeColor=none;fillColor=none;fontSize=12;" vertex="1" parent="1">
          <mxGeometry x="94" y="156" width="120" height="40" as="geometry" />
        </mxCell>
        <mxCell id="5dLRTpEhYtrTytqZXQKP-8" value="表示&lt;span style=&quot;background-color: transparent; color: light-dark(rgb(0, 0, 0), rgb(255, 255, 255));&quot;&gt;(する)&lt;/span&gt;" style="ellipse;shape=umlControl;whiteSpace=wrap;html=1;" vertex="1" parent="1">
          <mxGeometry x="420" y="180" width="70" height="80" as="geometry" />
        </mxCell>
        <mxCell id="5dLRTpEhYtrTytqZXQKP-11" value="" style="endArrow=classic;html=1;rounded=0;fontSize=12;startSize=8;endSize=8;curved=1;exitX=0.992;exitY=0.625;exitDx=0;exitDy=0;exitPerimeter=0;" edge="1" parent="1" source="5dLRTpEhYtrTytqZXQKP-4" target="5dLRTpEhYtrTytqZXQKP-8">
          <mxGeometry width="50" height="50" relative="1" as="geometry">
            <mxPoint x="350" y="233" as="sourcePoint" />
            <mxPoint x="438" y="180" as="targetPoint" />
          </mxGeometry>
        </mxCell>
        <mxCell id="5dLRTpEhYtrTytqZXQKP-18" value="" style="edgeStyle=none;curved=1;rounded=0;orthogonalLoop=1;jettySize=auto;html=1;fontSize=12;startSize=8;endSize=8;" edge="1" parent="1" source="5dLRTpEhYtrTytqZXQKP-13" target="5dLRTpEhYtrTytqZXQKP-17">
          <mxGeometry relative="1" as="geometry" />
        </mxCell>
        <mxCell id="5dLRTpEhYtrTytqZXQKP-13" value="学生登録&lt;div&gt;画面&lt;/div&gt;" style="shape=umlBoundary;whiteSpace=wrap;html=1;" vertex="1" parent="1">
          <mxGeometry x="250" y="280" width="100" height="80" as="geometry" />
        </mxCell>
        <mxCell id="5dLRTpEhYtrTytqZXQKP-14" value="" style="endArrow=classic;html=1;rounded=0;fontSize=12;startSize=8;endSize=8;curved=1;entryX=0.995;entryY=0.462;entryDx=0;entryDy=0;entryPerimeter=0;" edge="1" parent="1" source="5dLRTpEhYtrTytqZXQKP-8" target="5dLRTpEhYtrTytqZXQKP-13">
          <mxGeometry width="50" height="50" relative="1" as="geometry">
            <mxPoint x="440" y="310" as="sourcePoint" />
            <mxPoint x="552" y="348" as="targetPoint" />
          </mxGeometry>
        </mxCell>
        <mxCell id="5dLRTpEhYtrTytqZXQKP-16" value="②学生情報を&lt;div&gt;入力する&lt;/div&gt;" style="text;html=1;align=center;verticalAlign=middle;resizable=0;points=[];autosize=1;strokeColor=none;fillColor=none;fontSize=12;" vertex="1" parent="1">
          <mxGeometry x="115" y="310" width="100" height="40" as="geometry" />
        </mxCell>
        <mxCell id="5dLRTpEhYtrTytqZXQKP-17" value="学生登録&lt;div&gt;情報&lt;/div&gt;" style="ellipse;shape=umlControl;whiteSpace=wrap;html=1;" vertex="1" parent="1">
          <mxGeometry x="410" y="350" width="70" height="80" as="geometry" />
        </mxCell>
        <mxCell id="5dLRTpEhYtrTytqZXQKP-19" value="学生オブジェクト&lt;div&gt;(データ)&lt;/div&gt;" style="ellipse;shape=umlEntity;whiteSpace=wrap;html=1;" vertex="1" parent="1">
          <mxGeometry x="560" y="350" width="116" height="80" as="geometry" />
        </mxCell>
        <mxCell id="5dLRTpEhYtrTytqZXQKP-20" value="" style="endArrow=block;startArrow=block;endFill=1;startFill=1;html=1;rounded=0;fontSize=12;startSize=8;endSize=8;curved=1;exitX=0.993;exitY=0.509;exitDx=0;exitDy=0;exitPerimeter=0;entryX=0;entryY=0.5;entryDx=0;entryDy=0;strokeColor=#FF3333;" edge="1" parent="1" source="5dLRTpEhYtrTytqZXQKP-17" target="5dLRTpEhYtrTytqZXQKP-19">
          <mxGeometry width="160" relative="1" as="geometry">
            <mxPoint x="540" y="410" as="sourcePoint" />
            <mxPoint x="700" y="410" as="targetPoint" />
          </mxGeometry>
        </mxCell>
        <mxCell id="5dLRTpEhYtrTytqZXQKP-21" value="登録の成功、失敗&lt;div&gt;既に存在する学生かもしれない&lt;/div&gt;" style="text;html=1;align=center;verticalAlign=middle;resizable=0;points=[];autosize=1;strokeColor=none;fillColor=none;fontSize=13;" vertex="1" parent="1">
          <mxGeometry x="420" y="435" width="210" height="40" as="geometry" />
        </mxCell>
        <mxCell id="5dLRTpEhYtrTytqZXQKP-23" value="①境界オブジェクト&lt;div&gt;②制御オブジェクト&lt;/div&gt;&lt;div&gt;③実体オブジェクト&lt;/div&gt;" style="text;html=1;align=center;verticalAlign=middle;resizable=0;points=[];autosize=1;strokeColor=none;fillColor=none;fontSize=20;fontStyle=1" vertex="1" parent="1">
          <mxGeometry x="110" y="385" width="200" height="90" as="geometry" />
        </mxCell>
      </root>
    </mxGraphModel>
  </diagram>
</mxfile>
